Coordinates
version=1
nRows=16
nColumns=40
inDegrees=yes

Units are S.I. units (second, meters, Newtons, ...)
If the header above contains a line with 'inDegrees', this indicates whether rotational values are in degrees (yes) or radians (no).

endheader
time	pelvis_tilt	pelvis_list	pelvis_rotation	pelvis_tx	pelvis_ty	pelvis_tz	hip_flexion_r	hip_adduction_r	hip_rotation_r	knee_angle_r	knee_angle_r_beta	ankle_angle_r	subtalar_angle_r	mtp_angle_r	hip_flexion_l	hip_adduction_l	hip_rotation_l	knee_angle_l	knee_angle_l_beta	ankle_angle_l	subtalar_angle_l	mtp_angle_l	lumbar_extension	lumbar_bending	lumbar_rotation	arm_flex_r	arm_add_r	arm_rot_r	elbow_flex_r	pro_sup_r	wrist_flex_r	wrist_dev_r	arm_flex_l	arm_add_l	arm_rot_l	elbow_flex_l	pro_sup_l	wrist_flex_l	wrist_dev_l
      1.75000000	      4.87048494	      5.04149375	      0.54754411	     -0.31902571	      0.99077819	     -0.79615718	      2.22556659	     -0.39807622	    -13.52049242	     14.37980605	      0.25097496	     -8.19798100	      0.00000000	      0.00000000	     26.66920952	     -5.30132831	     -5.54010737	     15.99515014	      0.27916803	    -20.96985322	      0.00000000	      0.00000000	    -10.59680990	    -30.46785360	    -12.99874444	     52.50014309	    -12.96744385	     18.76286274	     61.46634893	     87.18727527	      0.00000000	      0.00000000	     84.87290145	      8.85513975	     87.66461046	     16.73198805	     78.12708830	      0.00000000	      0.00000000
      1.75500000	      4.95848706	      5.10812601	      0.42372760	     -0.31895938	      0.99092366	     -0.79577234	      2.10618011	     -0.43330912	    -13.45140243	     14.28138241	      0.24925714	     -8.28822840	      0.00000000	      0.00000000	     26.68002569	     -5.24817606	     -5.63590020	     15.68670238	      0.27378461	    -21.04732765	      0.00000000	      0.00000000	    -10.57924819	    -30.55337929	    -12.82234581	     52.54198950	    -12.89072263	     18.59683870	     61.38742772	     87.12615676	      0.00000000	      0.00000000	     84.91271506	      8.64693549	     87.86061112	     17.39108173	     74.07993381	      0.00000000	      0.00000000
      1.76000000	      4.93052992	      5.10545203	      0.44335850	     -0.31913958	      0.99081291	     -0.79564011	      2.20345010	     -0.43939353	    -13.45046477	     14.43903055	      0.25200862	     -8.20788587	      0.00000000	      0.00000000	     26.95884023	     -5.21541651	     -5.54837737	     15.63105194	      0.27281332	    -21.06654210	      0.00000000	      0.00000000	    -10.67905087	    -30.58196242	    -12.93811909	     52.64691043	    -12.95503760	     18.75203112	     61.49908249	     87.46727207	      0.00000000	      0.00000000	     84.95543215	      9.00873551	     87.65485631	     16.49986097	     71.39263213	      0.00000000	      0.00000000
      1.76500000	      4.93731200	      5.11448301	      0.43355283	     -0.31927931	      0.99079096	     -0.79543475	      2.21842052	     -0.43345540	    -13.38744553	     14.45477508	      0.25228342	     -8.13292960	      0.00000000	      0.00000000	     27.13674582	     -5.17727049	     -5.66712759	     15.43624917	      0.26941337	    -21.23469966	      0.00000000	      0.00000000	    -10.68723148	    -30.60514048	    -12.89659172	     52.72910091	    -12.93625192	     18.70039500	     61.45575073	     87.38137022	      0.00000000	      0.00000000	     85.15273344	      9.03478584	     87.57271970	     16.29608251	     81.13888355	      0.00000000	      0.00000000
      1.77000000	      4.98080151	      5.15681857	      0.43782989	     -0.31941464	      0.99082493	     -0.79531523	      2.18864407	     -0.47220467	    -13.44801565	     14.45852288	      0.25234883	     -8.28750850	      0.00000000	      0.00000000	     27.25952106	     -5.08407004	     -5.65115903	     15.25275642	      0.26621082	    -21.32455781	      0.00000000	      0.00000000	    -10.82386797	    -30.64804547	    -12.98105755	     52.85853195	    -12.91304259	     18.72328504	     61.46335820	     87.41795326	      0.00000000	      0.00000000	     85.25726829	      9.04259786	     87.71422520	     16.35053145	     76.43776324	      0.00000000	      0.00000000
      1.77500000	      5.00642232	      5.16120530	      0.49938774	     -0.31966962	      0.99079796	     -0.79523051	      2.20407672	     -0.47985031	    -13.50149605	     14.53776111	      0.25373180	     -8.15101401	      0.00000000	      0.00000000	     27.46866377	     -5.02022907	     -5.58386833	     15.15837168	      0.26456350	    -21.35225636	      0.00000000	      0.00000000	    -10.95513559	    -30.65848172	    -13.09879300	     52.97644622	    -12.86765750	     18.70399435	     61.43038308	     87.37145318	      0.00000000	      0.00000000	     85.43290338	      9.12164944	     87.62011895	     15.95076992	     81.11016818	      0.00000000	      0.00000000
      1.78000000	      5.03832215	      5.20010585	      0.47315917	     -0.31980970	      0.99079499	     -0.79504766	      2.21573798	     -0.52590920	    -13.51741936	     14.59921217	      0.25480432	     -8.13866678	      0.00000000	      0.00000000	     27.59025961	     -4.95258028	     -5.63367312	     14.96215554	      0.26113888	    -21.45203633	      0.00000000	      0.00000000	    -11.02303867	    -30.70580523	    -13.09344324	     53.07746196	    -12.86763931	     18.70857749	     61.40546098	     87.39710717	      0.00000000	      0.00000000	     85.54053713	      9.15157739	     87.62859107	     15.89866414	     81.27516790	      0.00000000	      0.00000000
      1.78500000	      5.02548335	      5.21648123	      0.48406942	     -0.32003627	      0.99071857	     -0.79493259	      2.27149023	     -0.53668016	    -13.49508108	     14.67764507	      0.25617323	     -8.17839346	      0.00000000	      0.00000000	     27.82034191	     -4.88784963	     -5.57396053	     14.89331394	      0.25993736	    -21.50439535	      0.00000000	      0.00000000	    -11.10602988	    -30.74195856	    -13.17020476	     53.18422262	    -12.86737995	     18.73288428	     61.45128764	     87.43689880	      0.00000000	      0.00000000	     85.63452364	      9.26913126	     87.71407100	     15.65801409	     77.89605925	      0.00000000	      0.00000000
      1.79000000	      5.06766222	      5.23531167	      0.43265048	     -0.32018338	      0.99072745	     -0.79471939	      2.26453273	     -0.55414908	    -13.44944534	     14.71524823	      0.25682953	     -8.05919569	      0.00000000	      0.00000000	     27.92024961	     -4.86467485	     -5.78410149	     14.71837939	      0.25688418	    -21.57213882	      0.00000000	      0.00000000	    -11.18815858	    -30.77805218	    -13.17313870	     53.31008628	    -12.80322368	     18.68260765	     61.38760920	     87.44633923	      0.00000000	      0.00000000	     85.79066849	      9.28121779	     87.69419932	     15.54607574	     81.15208518	      0.00000000	      0.00000000
      1.79500000	      5.08357173	      5.24349651	      0.43408932	     -0.32033465	      0.99070139	     -0.79456484	      2.28954968	     -0.57008915	    -13.53014788	     14.76967131	      0.25777939	     -8.10750698	      0.00000000	      0.00000000	     28.08181693	     -4.81161299	     -5.74240648	     14.59169231	      0.25467307	    -21.62059293	      0.00000000	      0.00000000	    -11.26263014	    -30.79168488	    -13.21452540	     53.40964533	    -12.79197477	     18.70801726	     61.35463655	     87.41642738	      0.00000000	      0.00000000	     85.89308325	      9.31032598	     87.68400900	     15.47093653	     81.37706687	      0.00000000	      0.00000000
      1.80000000	      5.08734367	      5.31984182	      0.38893942	     -0.32050982	      0.99068375	     -0.79438026	      2.31718141	     -0.63852436	    -13.42322160	     14.80833851	      0.25845426	     -8.10694914	      0.00000000	      0.00000000	     28.20719101	     -4.70829150	     -5.85833248	     14.37593541	      0.25090741	    -21.72219373	      0.00000000	      0.00000000	    -11.30343492	    -30.88774221	    -13.22555120	     53.52654294	    -12.71319618	     18.66903552	     61.26187259	     87.14177172	      0.00000000	      0.00000000	     86.01346965	      9.18655684	     87.99422921	     15.85945599	     76.88899248	      0.00000000	      0.00000000
      1.80500000	      5.09099645	      5.26239818	      0.40074559	     -0.32073526	      0.99056664	     -0.79419471	      2.37755971	     -0.58105465	    -13.50817632	     14.91176245	      0.26025935	     -8.05718035	      0.00000000	      0.00000000	     28.41912973	     -4.72634511	     -5.75003164	     14.34798059	      0.25041950	    -21.62299050	      0.00000000	      0.00000000	    -11.40330036	    -30.86756399	    -13.30290661	     53.64126226	    -12.70689465	     18.65657162	     61.29938931	     87.40310102	      0.00000000	      0.00000000	     86.14449559	      9.43967680	     87.75285430	     15.06094719	     81.51526368	      0.00000000	      0.00000000
      1.81000000	      5.09365129	      5.26971851	      0.39725538	     -0.32095370	      0.99053367	     -0.79404391	      2.43524319	     -0.59541060	    -13.51813767	     15.01073331	      0.26198672	     -8.03812690	      0.00000000	      0.00000000	     28.59867467	     -4.67894480	     -5.74995527	     14.26890874	      0.24903944	    -21.57294791	      0.00000000	      0.00000000	    -11.48319743	    -30.89878644	    -13.35142513	     53.74487766	    -12.67543791	     18.59915014	     61.27824154	     87.43739151	      0.00000000	      0.00000000	     86.25637287	      9.51522124	     87.75794373	     14.88493942	     81.28012840	      0.00000000	      0.00000000
      1.81500000	      5.10540983	      5.28263188	      0.38662517	     -0.32118864	      0.99045406	     -0.79390102	      2.47728152	     -0.61301287	    -13.53263609	     15.08347718	      0.26325634	     -8.04556792	      0.00000000	      0.00000000	     28.75830262	     -4.63025995	     -5.71097310	     14.17871692	      0.24746529	    -21.64422818	      0.00000000	      0.00000000	    -11.57476257	    -30.93253362	    -13.41375279	     53.87536873	    -12.63367725	     18.59591892	     61.25109754	     87.45260253	      0.00000000	      0.00000000	     86.39179416	      9.56028274	     87.77465979	     14.75463184	     81.55774936	      0.00000000	      0.00000000
      1.82000000	      5.09293085	      5.29770856	      0.35166983	     -0.32142882	      0.99036431	     -0.79369441	      2.56900772	     -0.63475055	    -13.50742678	     15.20521318	      0.26538103	     -8.03364264	      0.00000000	      0.00000000	     28.94300044	     -4.58503931	     -5.76851917	     14.08384237	      0.24580942	    -21.69692794	      0.00000000	      0.00000000	    -11.61782982	    -30.98041486	    -13.42690506	     53.97810312	    -12.58840862	     18.51697380	     61.22759283	     87.42909084	      0.00000000	      0.00000000	     86.52916313	      9.62778812	     87.84231844	     14.63779890	     81.54264780	      0.00000000	      0.00000000
      1.82500000	      5.12278501	      5.31717101	      0.33709462	     -0.32170454	      0.99034787	     -0.79356157	      2.59174493	     -0.66458301	    -13.50755724	     15.27884024	      0.26666607	     -8.05073341	      0.00000000	      0.00000000	     29.05890695	     -4.53618174	     -5.78201537	     13.96574070	      0.24374816	    -21.72758742	      0.00000000	      0.00000000	    -11.73793407	    -31.02535774	    -13.48048380	     54.11337955	    -12.56644632	     18.51393236	     61.21718305	     87.54582989	      0.00000000	      0.00000000	     86.64157363	      9.72037306	     87.79287100	     14.42309510	     81.02295618	      0.00000000	      0.00000000
